<svg id="图层_1" data-name="图层 1" xmlns="http://www.w3.org/2000/svg" xmlns:xlink="http://www.w3.org/1999/xlink" viewBox="0 0 1198.57 1052.77"><defs><style>.cls-1,.cls-13,.cls-5,.cls-6{fill:none;}.cls-2{isolation:isolate;}.cls-3{fill:#ddd;}.cls-4{clip-path:url(#clip-path);}.cls-13,.cls-5,.cls-6{stroke:#000;}.cls-5,.cls-6{stroke-linejoin:round;stroke-width:1.07px;}.cls-5{stroke-dasharray:4.27 4.27;}.cls-7,.cls-9{fill:#529dcc;}.cls-7{opacity:0.25;}.cls-8{clip-path:url(#clip-path-2);}.cls-10{clip-path:url(#clip-path-3);}.cls-11{fill:#828282;}.cls-12{fill:#d5e5f4;}.cls-13{stroke-miterlimit:10;stroke-width:0.53px;}.cls-14{fill:#d1e2f2;}.cls-15{fill:#cfe1f2;}.cls-16{fill:#ccdff1;}.cls-17{fill:#cadef0;}.cls-18{fill:#c8dcef;}.cls-19{fill:#c6dbef;}.cls-20{fill:#b8d5ea;}.cls-21{fill:#b1d2e7;}.cls-22{fill:#add0e6;}.cls-23{fill:#7ab6d9;}.cls-24{fill:#76b4d8;}.cls-25{fill:#3a8ac2;}.cls-26{fill:#2575b7;}.cls-27{fill:#c2e7bb;}.cls-28{fill:#bfe5b8;}.cls-29{fill:#bce4b5;}.cls-30{fill:#b3e0ac;}.cls-31{fill:#b6e1af;}.cls-32{fill:#c8e9c1;}.cls-33{fill:#a1d99b;}.cls-34{fill:#87cd86;}.cls-35{fill:#caeac3;}.cls-36{fill:#79c67a;}.cls-37{fill:#2d964d;}.cls-38{fill:#268e47;}.cls-39{fill:#248c45;}.cls-40{fill:#fddacb;}.cls-41{fill:#fdd4c2;}.cls-42{fill:#fdd8c8;}.cls-43{fill:#fddfd1;}.cls-44{fill:#fdddce;}.cls-45{fill:#fcc2aa;}.cls-46{fill:#fdcfbc;}.cls-47{fill:#fc9e80;}.cls-48{fill:#fdd6c5;}.cls-49{fill:#fb8363;}.cls-50{fill:#fb7050;}.cls-51{fill:#fb7c5c;}.cls-52{fill:#fccbb6;}.cls-53{fill:#fc9474;}.cls-54{fill:#f96345;}.cls-55{fill:#e73328;}.cls-56{fill:#ffe500;}.cls-57{fill:#ffe000;}.cls-58{fill:#ffc600;}.cls-59{fill:#ffbe00;}.cls-60{fill:#ffc300;}.cls-61{fill:#ffd300;}.cls-62{fill:#ffb400;}.cls-63{fill:#ffb900;}.cls-64{fill:#ffd000;}.cls-65{fill:#ffa200;}.cls-66{fill:#fa0;}.cls-67{fill:#ffb100;}.cls-68{fill:#ffbc00;}.cls-69{fill:#ffe200;}.cls-70{fill:#ffc100;}.cls-71{fill:#ffa400;}.cls-72,.cls-73,.cls-74{font-size:11.38px;}.cls-72,.cls-75{font-family:ArialMT, Arial;}.cls-73,.cls-74{font-family:Arial-BoldMT, Arial;font-weight:700;}.cls-74{fill:#fff;}.cls-75{font-size:11.38px;}</style><clipPath id="clip-path" transform="translate(-16.95 -121.61)"><rect class="cls-1" x="28" y="1137" width="1188" height="37.39"/></clipPath><clipPath id="clip-path-2" transform="translate(-16.95 -121.61)"><rect class="cls-1" x="569" y="121.61" width="639" height="34.39"/></clipPath><clipPath id="clip-path-3" transform="translate(-16.95 -121.61)"><rect class="cls-1" x="37" y="121.61" width="516" height="34.39"/></clipPath></defs><g class="cls-2"><rect class="cls-3" x="11.87" y="157.66" width="1186.7" height="37.3"/><rect class="cls-3" x="11.87" y="232.25" width="1186.7" height="37.3"/><rect class="cls-3" x="11.87" y="306.85" width="1186.7" height="37.3"/><rect class="cls-3" x="11.87" y="381.44" width="1186.7" height="37.3"/><rect class="cls-3" x="11.87" y="456.03" width="1186.7" height="37.3"/><rect class="cls-3" x="11.87" y="530.62" width="1186.7" height="37.3"/><rect class="cls-3" x="11.87" y="605.22" width="1186.7" height="37.3"/><rect class="cls-3" x="11.87" y="679.81" width="1186.7" height="37.3"/><rect class="cls-3" x="11.87" y="754.4" width="1186.7" height="37.3"/><rect class="cls-3" x="11.87" y="829" width="1186.7" height="37.3"/><rect class="cls-3" x="11.87" y="940.89" width="1186.7" height="37.3"/><g class="cls-4"><rect class="cls-3" x="11.87" y="1015.48" width="1186.7" height="37.3"/><line class="cls-5" x1="596.74" y1="1051.08" x2="596.74" y2="1017.17"/></g><line class="cls-5" x1="596.74" y1="1013.78" x2="596.74" y2="979.88"/><line class="cls-5" x1="596.74" y1="976.49" x2="596.74" y2="942.58"/><line class="cls-5" x1="596.74" y1="901.89" x2="596.74" y2="867.99"/><line class="cls-5" x1="596.74" y1="864.6" x2="596.74" y2="830.69"/><line class="cls-5" x1="596.74" y1="827.3" x2="596.74" y2="793.39"/><line class="cls-5" x1="596.74" y1="790" x2="596.74" y2="756.1"/><line class="cls-5" x1="596.74" y1="752.71" x2="596.74" y2="718.8"/><line class="cls-5" x1="596.74" y1="715.41" x2="596.74" y2="681.5"/><line class="cls-5" x1="596.74" y1="640.82" x2="596.74" y2="606.91"/><line class="cls-5" x1="596.74" y1="603.52" x2="596.74" y2="569.62"/><line class="cls-5" x1="596.74" y1="566.23" x2="596.74" y2="532.32"/><line class="cls-5" x1="596.74" y1="528.93" x2="596.74" y2="495.02"/><line class="cls-5" x1="596.74" y1="491.63" x2="596.74" y2="457.73"/><line class="cls-5" x1="596.74" y1="454.34" x2="596.74" y2="420.43"/><line class="cls-5" x1="596.74" y1="417.04" x2="596.74" y2="383.13"/><line class="cls-5" x1="596.74" y1="379.74" x2="596.74" y2="345.84"/><line class="cls-5" x1="596.74" y1="342.45" x2="596.74" y2="308.54"/><line class="cls-5" x1="596.74" y1="305.15" x2="596.74" y2="271.25"/><line class="cls-5" x1="596.74" y1="267.86" x2="596.74" y2="233.95"/><line class="cls-5" x1="596.74" y1="230.56" x2="596.74" y2="196.65"/><line class="cls-5" x1="596.74" y1="193.26" x2="596.74" y2="159.36"/><line class="cls-5" x1="732.37" y1="1051.08" x2="732.37" y2="1017.17"/><line class="cls-5" x1="732.37" y1="1013.78" x2="732.37" y2="979.88"/><line class="cls-5" x1="732.37" y1="976.49" x2="732.37" y2="942.58"/><line class="cls-5" x1="732.37" y1="901.89" x2="732.37" y2="867.99"/><line class="cls-5" x1="732.37" y1="864.6" x2="732.37" y2="830.69"/><line class="cls-5" x1="732.37" y1="827.3" x2="732.37" y2="793.39"/><line class="cls-5" x1="732.37" y1="790" x2="732.37" y2="756.1"/><line class="cls-5" x1="732.37" y1="752.71" x2="732.37" y2="718.8"/><line class="cls-5" x1="732.37" y1="715.41" x2="732.37" y2="681.5"/><line class="cls-5" x1="732.37" y1="640.82" x2="732.37" y2="606.91"/><line class="cls-5" x1="732.37" y1="603.52" x2="732.37" y2="569.62"/><line class="cls-5" x1="732.37" y1="566.23" x2="732.37" y2="532.32"/><line class="cls-5" x1="732.37" y1="528.93" x2="732.37" y2="495.02"/><line class="cls-5" x1="732.37" y1="491.63" x2="732.37" y2="457.73"/><line class="cls-5" x1="732.37" y1="454.34" x2="732.37" y2="420.43"/><line class="cls-5" x1="732.37" y1="417.04" x2="732.37" y2="383.13"/><line class="cls-5" x1="732.37" y1="379.74" x2="732.37" y2="345.84"/><line class="cls-5" x1="732.37" y1="342.45" x2="732.37" y2="308.54"/><line class="cls-5" x1="732.37" y1="305.15" x2="732.37" y2="271.25"/><line class="cls-5" x1="732.37" y1="267.86" x2="732.37" y2="233.95"/><line class="cls-5" x1="732.37" y1="230.56" x2="732.37" y2="196.65"/><line class="cls-5" x1="732.37" y1="193.26" x2="732.37" y2="159.36"/><line class="cls-5" x1="749.32" y1="1051.08" x2="749.32" y2="1017.17"/><line class="cls-5" x1="749.32" y1="1013.78" x2="749.32" y2="979.88"/><line class="cls-5" x1="749.32" y1="976.49" x2="749.32" y2="942.58"/><line class="cls-5" x1="749.32" y1="901.89" x2="749.32" y2="867.99"/><line class="cls-5" x1="749.32" y1="864.6" x2="749.32" y2="830.69"/><line class="cls-5" x1="749.32" y1="827.3" x2="749.32" y2="793.39"/><line class="cls-5" x1="749.32" y1="790" x2="749.32" y2="756.1"/><line class="cls-5" x1="749.32" y1="752.71" x2="749.32" y2="718.8"/><line class="cls-5" x1="749.32" y1="715.41" x2="749.32" y2="681.5"/><line class="cls-5" x1="749.32" y1="640.82" x2="749.32" y2="606.91"/><line class="cls-5" x1="749.32" y1="603.52" x2="749.32" y2="569.62"/><line class="cls-5" x1="749.32" y1="566.23" x2="749.32" y2="532.32"/><line class="cls-5" x1="749.32" y1="528.93" x2="749.32" y2="495.02"/><line class="cls-5" x1="749.32" y1="491.63" x2="749.32" y2="457.73"/><line class="cls-5" x1="749.32" y1="454.34" x2="749.32" y2="420.43"/><line class="cls-5" x1="749.32" y1="417.04" x2="749.32" y2="383.13"/><line class="cls-5" x1="749.32" y1="379.74" x2="749.32" y2="345.84"/><line class="cls-5" x1="749.32" y1="342.45" x2="749.32" y2="308.54"/><line class="cls-5" x1="749.32" y1="305.15" x2="749.32" y2="271.25"/><line class="cls-5" x1="749.32" y1="267.86" x2="749.32" y2="233.95"/><line class="cls-5" x1="749.32" y1="230.56" x2="749.32" y2="196.65"/><line class="cls-5" x1="749.32" y1="193.26" x2="749.32" y2="159.36"/><line class="cls-5" x1="884.94" y1="1051.08" x2="884.94" y2="1017.17"/><line class="cls-5" x1="884.94" y1="1013.78" x2="884.94" y2="979.88"/><line class="cls-5" x1="884.94" y1="976.49" x2="884.94" y2="942.58"/><line class="cls-5" x1="884.94" y1="901.89" x2="884.94" y2="867.99"/><line class="cls-5" x1="884.94" y1="864.6" x2="884.94" y2="830.69"/><line class="cls-5" x1="884.94" y1="827.3" x2="884.94" y2="793.39"/><line class="cls-5" x1="884.94" y1="790" x2="884.94" y2="756.1"/><line class="cls-5" x1="884.94" y1="752.71" x2="884.94" y2="718.8"/><line class="cls-5" x1="884.94" y1="715.41" x2="884.94" y2="681.5"/><line class="cls-5" x1="884.94" y1="640.82" x2="884.94" y2="606.91"/><line class="cls-5" x1="884.94" y1="603.52" x2="884.94" y2="569.62"/><line class="cls-5" x1="884.94" y1="566.23" x2="884.94" y2="532.32"/><line class="cls-5" x1="884.94" y1="528.93" x2="884.94" y2="495.02"/><line class="cls-5" x1="884.94" y1="491.63" x2="884.94" y2="457.73"/><line class="cls-5" x1="884.94" y1="454.34" x2="884.94" y2="420.43"/><line class="cls-5" x1="884.94" y1="417.04" x2="884.94" y2="383.13"/><line class="cls-5" x1="884.94" y1="379.74" x2="884.94" y2="345.84"/><line class="cls-5" x1="884.94" y1="342.45" x2="884.94" y2="308.54"/><line class="cls-5" x1="884.94" y1="305.15" x2="884.94" y2="271.25"/><line class="cls-5" x1="884.94" y1="267.86" x2="884.94" y2="233.95"/><line class="cls-5" x1="884.94" y1="230.56" x2="884.94" y2="196.65"/><line class="cls-5" x1="884.94" y1="193.26" x2="884.94" y2="159.36"/><line class="cls-5" x1="901.89" y1="1051.08" x2="901.89" y2="1017.17"/><line class="cls-5" x1="901.89" y1="1013.78" x2="901.89" y2="979.88"/><line class="cls-5" x1="901.89" y1="976.49" x2="901.89" y2="942.58"/><line class="cls-5" x1="901.89" y1="901.89" x2="901.89" y2="867.99"/><line class="cls-5" x1="901.89" y1="864.6" x2="901.89" y2="830.69"/><line class="cls-5" x1="901.89" y1="827.3" x2="901.89" y2="793.39"/><line class="cls-5" x1="901.89" y1="790" x2="901.89" y2="756.1"/><line class="cls-5" x1="901.89" y1="752.71" x2="901.89" y2="718.8"/><line class="cls-5" x1="901.89" y1="715.41" x2="901.89" y2="681.5"/><line class="cls-5" x1="901.89" y1="640.82" x2="901.89" y2="606.91"/><line class="cls-5" x1="901.89" y1="603.52" x2="901.89" y2="569.62"/><line class="cls-5" x1="901.89" y1="566.23" x2="901.89" y2="532.32"/><line class="cls-5" x1="901.89" y1="528.93" x2="901.89" y2="495.02"/><line class="cls-5" x1="901.89" y1="491.63" x2="901.89" y2="457.73"/><line class="cls-5" x1="901.89" y1="454.34" x2="901.89" y2="420.43"/><line class="cls-5" x1="901.89" y1="417.04" x2="901.89" y2="383.13"/><line class="cls-5" x1="901.89" y1="379.74" x2="901.89" y2="345.84"/><line class="cls-5" x1="901.89" y1="342.45" x2="901.89" y2="308.54"/><line class="cls-5" x1="901.89" y1="305.15" x2="901.89" y2="271.25"/><line class="cls-5" x1="901.89" y1="267.86" x2="901.89" y2="233.95"/><line class="cls-5" x1="901.89" y1="230.56" x2="901.89" y2="196.65"/><line class="cls-5" x1="901.89" y1="193.26" x2="901.89" y2="159.36"/><line class="cls-5" x1="1037.52" y1="1051.08" x2="1037.52" y2="1017.17"/><line class="cls-5" x1="1037.52" y1="1013.78" x2="1037.52" y2="979.88"/><line class="cls-5" x1="1037.52" y1="976.49" x2="1037.52" y2="942.58"/><line class="cls-5" x1="1037.52" y1="901.89" x2="1037.52" y2="867.99"/><line class="cls-5" x1="1037.52" y1="864.6" x2="1037.52" y2="830.69"/><line class="cls-5" x1="1037.52" y1="827.3" x2="1037.52" y2="793.39"/><line class="cls-5" x1="1037.52" y1="790" x2="1037.52" y2="756.1"/><line class="cls-5" x1="1037.52" y1="752.71" x2="1037.52" y2="718.8"/><line class="cls-5" x1="1037.52" y1="715.41" x2="1037.52" y2="681.5"/><line class="cls-5" x1="1037.52" y1="640.82" x2="1037.52" y2="606.91"/><line class="cls-5" x1="1037.52" y1="603.52" x2="1037.52" y2="569.62"/><line class="cls-5" x1="1037.52" y1="566.23" x2="1037.52" y2="532.32"/><line class="cls-5" x1="1037.52" y1="528.93" x2="1037.52" y2="495.02"/><line class="cls-5" x1="1037.52" y1="491.63" x2="1037.52" y2="457.73"/><line class="cls-5" x1="1037.52" y1="454.34" x2="1037.52" y2="420.43"/><line class="cls-5" x1="1037.52" y1="417.04" x2="1037.52" y2="383.13"/><line class="cls-5" x1="1037.52" y1="379.74" x2="1037.52" y2="345.84"/><line class="cls-5" x1="1037.52" y1="342.45" x2="1037.52" y2="308.54"/><line class="cls-5" x1="1037.52" y1="305.15" x2="1037.52" y2="271.25"/><line class="cls-5" x1="1037.52" y1="267.86" x2="1037.52" y2="233.95"/><line class="cls-5" x1="1037.52" y1="230.56" x2="1037.52" y2="196.65"/><line class="cls-5" x1="1037.52" y1="193.26" x2="1037.52" y2="159.36"/><line class="cls-5" x1="1054.47" y1="1051.08" x2="1054.47" y2="1017.17"/><line class="cls-5" x1="1054.47" y1="1013.78" x2="1054.47" y2="979.88"/><line class="cls-5" x1="1054.47" y1="976.49" x2="1054.47" y2="942.58"/><line class="cls-5" x1="1054.47" y1="901.89" x2="1054.47" y2="867.99"/><line class="cls-5" x1="1054.47" y1="864.6" x2="1054.47" y2="830.69"/><line class="cls-5" x1="1054.47" y1="827.3" x2="1054.47" y2="793.39"/><line class="cls-5" x1="1054.47" y1="790" x2="1054.47" y2="756.1"/><line class="cls-5" x1="1054.47" y1="752.71" x2="1054.47" y2="718.8"/><line class="cls-5" x1="1054.47" y1="715.41" x2="1054.47" y2="681.5"/><line class="cls-5" x1="1054.47" y1="640.82" x2="1054.47" y2="606.91"/><line class="cls-5" x1="1054.47" y1="603.52" x2="1054.47" y2="569.62"/><line class="cls-5" x1="1054.47" y1="566.23" x2="1054.47" y2="532.32"/><line class="cls-5" x1="1054.47" y1="528.93" x2="1054.47" y2="495.02"/><line class="cls-5" x1="1054.47" y1="491.63" x2="1054.47" y2="457.73"/><line class="cls-5" x1="1054.47" y1="454.34" x2="1054.47" y2="420.43"/><line class="cls-5" x1="1054.47" y1="417.04" x2="1054.47" y2="383.13"/><line class="cls-5" x1="1054.47" y1="379.74" x2="1054.47" y2="345.84"/><line class="cls-5" x1="1054.47" y1="342.45" x2="1054.47" y2="308.54"/><line class="cls-5" x1="1054.47" y1="305.15" x2="1054.47" y2="271.25"/><line class="cls-5" x1="1054.47" y1="267.86" x2="1054.47" y2="233.95"/><line class="cls-5" x1="1054.47" y1="230.56" x2="1054.47" y2="196.65"/><line class="cls-5" x1="1054.47" y1="193.26" x2="1054.47" y2="159.36"/><line class="cls-5" x1="1190.09" y1="1051.08" x2="1190.09" y2="1017.17"/><line class="cls-5" x1="1190.09" y1="1013.78" x2="1190.09" y2="979.88"/><line class="cls-5" x1="1190.09" y1="976.49" x2="1190.09" y2="942.58"/><line class="cls-5" x1="1190.09" y1="901.89" x2="1190.09" y2="867.99"/><line class="cls-5" x1="1190.09" y1="864.6" x2="1190.09" y2="830.69"/><line class="cls-5" x1="1190.09" y1="827.3" x2="1190.09" y2="793.39"/><line class="cls-5" x1="1190.09" y1="790" x2="1190.09" y2="756.1"/><line class="cls-5" x1="1190.09" y1="752.71" x2="1190.09" y2="718.8"/><line class="cls-5" x1="1190.09" y1="715.41" x2="1190.09" y2="681.5"/><line class="cls-5" x1="1190.09" y1="640.82" x2="1190.09" y2="606.91"/><line class="cls-5" x1="1190.09" y1="603.52" x2="1190.09" y2="569.62"/><line class="cls-5" x1="1190.09" y1="566.23" x2="1190.09" y2="532.32"/><line class="cls-5" x1="1190.09" y1="528.93" x2="1190.09" y2="495.02"/><line class="cls-5" x1="1190.09" y1="491.63" x2="1190.09" y2="457.73"/><line class="cls-5" x1="1190.09" y1="454.34" x2="1190.09" y2="420.43"/><line class="cls-5" x1="1190.09" y1="417.04" x2="1190.09" y2="383.13"/><line class="cls-5" x1="1190.09" y1="379.74" x2="1190.09" y2="345.84"/><line class="cls-5" x1="1190.09" y1="342.45" x2="1190.09" y2="308.54"/><line class="cls-5" x1="1190.09" y1="305.15" x2="1190.09" y2="271.25"/><line class="cls-5" x1="1190.09" y1="267.86" x2="1190.09" y2="233.95"/><line class="cls-5" x1="1190.09" y1="230.56" x2="1190.09" y2="196.65"/><line class="cls-5" x1="1190.09" y1="193.26" x2="1190.09" y2="159.36"/><line class="cls-6" x1="294.98" y1="149.18" x2="294.98" y2="142.4"/><line class="cls-6" x1="501.8" y1="149.18" x2="501.8" y2="142.4"/><line class="cls-6" x1="573.01" y1="149.18" x2="573.01" y2="142.4"/><line class="cls-6" x1="817.13" y1="149.18" x2="817.13" y2="142.4"/><line class="cls-6" x1="969.71" y1="149.18" x2="969.71" y2="142.4"/><line class="cls-6" x1="1122.28" y1="149.18" x2="1122.28" y2="142.4"/><rect class="cls-7" x="552.66" y="37.29" width="637.43" height="33.91"/><g class="cls-8"><rect class="cls-9" x="552.66" width="637.43" height="33.91"/></g><g class="cls-10"><rect class="cls-11" x="20.34" width="515.37" height="33.91"/></g><rect class="cls-12" x="596.74" y="159.36" width="115.17" height="33.91"/><rect class="cls-13" x="596.74" y="159.36" width="115.17" height="33.91"/><rect class="cls-14" x="596.74" y="196.65" width="112.63" height="33.91"/><rect class="cls-13" x="596.74" y="196.65" width="112.63" height="33.91"/><rect class="cls-15" x="596.74" y="233.95" width="111.54" height="33.91"/><rect class="cls-13" x="596.74" y="233.95" width="111.54" height="33.91"/><rect class="cls-15" x="596.74" y="681.5" width="111.18" height="33.91"/><rect class="cls-13" x="596.74" y="681.5" width="111.18" height="33.91"/><rect class="cls-15" x="596.74" y="271.25" width="111.05" height="33.91"/><rect class="cls-13" x="596.74" y="271.25" width="111.05" height="33.91"/><rect class="cls-15" x="596.74" y="718.8" width="110.71" height="33.91"/><rect class="cls-13" x="596.74" y="718.8" width="110.71" height="33.91"/><rect class="cls-16" x="596.74" y="308.54" width="110.15" height="33.91"/><rect class="cls-13" x="596.74" y="308.54" width="110.15" height="33.91"/><rect class="cls-17" x="596.74" y="942.58" width="108.79" height="33.91"/><rect class="cls-13" x="596.74" y="942.58" width="108.79" height="33.91"/><rect class="cls-17" x="596.74" y="345.84" width="108.33" height="33.91"/><rect class="cls-13" x="596.74" y="345.84" width="108.33" height="33.91"/><rect class="cls-18" x="596.74" y="383.13" width="107.73" height="33.91"/><rect class="cls-13" x="596.74" y="383.13" width="107.73" height="33.91"/><rect class="cls-18" x="596.74" y="420.43" width="106.93" height="33.91"/><rect class="cls-13" x="596.74" y="420.43" width="106.93" height="33.91"/><rect class="cls-18" x="596.74" y="457.73" width="106.63" height="33.91"/><rect class="cls-13" x="596.74" y="457.73" width="106.63" height="33.91"/><rect class="cls-19" x="596.74" y="979.88" width="106.35" height="33.91"/><rect class="cls-13" x="596.74" y="979.88" width="106.35" height="33.91"/><rect class="cls-20" x="596.74" y="495.02" width="100.98" height="33.91"/><rect class="cls-13" x="596.74" y="495.02" width="100.98" height="33.91"/><rect class="cls-21" x="596.74" y="532.32" width="97.84" height="33.91"/><rect class="cls-13" x="596.74" y="532.32" width="97.84" height="33.91"/><rect class="cls-22" x="596.74" y="1017.17" width="96.92" height="33.91"/><rect class="cls-13" x="596.74" y="1017.17" width="96.92" height="33.91"/><rect class="cls-23" x="596.74" y="756.1" width="80.28" height="33.91"/><rect class="cls-13" x="596.74" y="756.1" width="80.28" height="33.91"/><rect class="cls-24" x="596.74" y="793.39" width="78.91" height="33.91"/><rect class="cls-13" x="596.74" y="793.39" width="78.91" height="33.91"/><rect class="cls-24" x="596.74" y="569.62" width="78.47" height="33.91"/><rect class="cls-13" x="596.74" y="569.62" width="78.47" height="33.91"/><rect class="cls-9" x="596.74" y="606.91" width="66.88" height="33.91"/><rect class="cls-13" x="596.74" y="606.91" width="66.88" height="33.91"/><rect class="cls-25" x="596.74" y="830.69" width="56.77" height="33.91"/><rect class="cls-13" x="596.74" y="830.69" width="56.77" height="33.91"/><rect class="cls-26" x="596.74" y="867.99" width="47.96" height="33.91"/><rect class="cls-13" x="596.74" y="867.99" width="47.96" height="33.91"/><rect class="cls-27" x="749.32" y="159.36" width="117.04" height="33.91"/><rect class="cls-13" x="749.32" y="159.36" width="117.04" height="33.91"/><rect class="cls-28" x="749.32" y="196.65" width="114.68" height="33.91"/><rect class="cls-13" x="749.32" y="196.65" width="114.68" height="33.91"/><rect class="cls-28" x="749.32" y="233.95" width="115.73" height="33.91"/><rect class="cls-13" x="749.32" y="233.95" width="115.73" height="33.91"/><rect class="cls-28" x="749.32" y="681.5" width="115.14" height="33.91"/><rect class="cls-13" x="749.32" y="681.5" width="115.14" height="33.91"/><rect class="cls-29" x="749.32" y="271.25" width="113.9" height="33.91"/><rect class="cls-13" x="749.32" y="271.25" width="113.9" height="33.91"/><rect class="cls-27" x="749.32" y="718.8" width="116.08" height="33.91"/><rect class="cls-13" x="749.32" y="718.8" width="116.08" height="33.91"/><rect class="cls-30" x="749.32" y="308.54" width="110.46" height="33.91"/><rect class="cls-13" x="749.32" y="308.54" width="110.46" height="33.91"/><rect class="cls-31" x="749.32" y="942.58" width="111.29" height="33.91"/><rect class="cls-13" x="749.32" y="942.58" width="111.29" height="33.91"/><rect class="cls-32" x="749.32" y="345.84" width="118.76" height="33.91"/><rect class="cls-13" x="749.32" y="345.84" width="118.76" height="33.91"/><rect class="cls-29" x="749.32" y="383.13" width="113.76" height="33.91"/><rect class="cls-13" x="749.32" y="383.13" width="113.76" height="33.91"/><rect class="cls-33" x="749.32" y="420.43" width="101.47" height="33.91"/><rect class="cls-13" x="749.32" y="420.43" width="101.47" height="33.91"/><rect class="cls-30" x="749.32" y="457.73" width="109.73" height="33.91"/><rect class="cls-13" x="749.32" y="457.73" width="109.73" height="33.91"/><rect class="cls-30" x="749.32" y="979.88" width="110.05" height="33.91"/><rect class="cls-13" x="749.32" y="979.88" width="110.05" height="33.91"/><rect class="cls-28" x="749.32" y="495.02" width="115.45" height="33.91"/><rect class="cls-13" x="749.32" y="495.02" width="115.45" height="33.91"/><rect class="cls-34" x="749.32" y="532.32" width="92.9" height="33.91"/><rect class="cls-13" x="749.32" y="532.32" width="92.9" height="33.91"/><rect class="cls-35" x="749.32" y="1017.17" width="120.95" height="33.91"/><rect class="cls-13" x="749.32" y="1017.17" width="120.95" height="33.91"/><rect class="cls-36" x="749.32" y="756.1" width="87.48" height="33.91"/><rect class="cls-13" x="749.32" y="756.1" width="87.48" height="33.91"/><rect class="cls-36" x="749.32" y="793.39" width="86.94" height="33.91"/><rect class="cls-13" x="749.32" y="793.39" width="86.94" height="33.91"/><rect class="cls-37" x="749.32" y="569.62" width="56.42" height="33.91"/><rect class="cls-13" x="749.32" y="569.62" width="56.42" height="33.91"/><rect class="cls-38" x="749.32" y="606.91" width="52.93" height="33.91"/><rect class="cls-13" x="749.32" y="606.91" width="52.93" height="33.91"/><rect class="cls-37" x="749.32" y="830.69" width="56.48" height="33.91"/><rect class="cls-13" x="749.32" y="830.69" width="56.48" height="33.91"/><rect class="cls-39" x="749.32" y="867.99" width="51.54" height="33.91"/><rect class="cls-13" x="749.32" y="867.99" width="51.54" height="33.91"/><rect class="cls-40" x="901.89" y="159.36" width="109.19" height="33.91"/><rect class="cls-13" x="901.89" y="159.36" width="109.19" height="33.91"/><rect class="cls-41" x="901.89" y="196.65" width="106.33" height="33.91"/><rect class="cls-13" x="901.89" y="196.65" width="106.33" height="33.91"/><rect class="cls-42" x="901.89" y="233.95" width="108.17" height="33.91"/><rect class="cls-13" x="901.89" y="233.95" width="108.17" height="33.91"/><rect class="cls-42" x="901.89" y="681.5" width="108.35" height="33.91"/><rect class="cls-13" x="901.89" y="681.5" width="108.35" height="33.91"/><rect class="cls-43" x="901.89" y="271.25" width="111.91" height="33.91"/><rect class="cls-13" x="901.89" y="271.25" width="111.91" height="33.91"/><rect class="cls-41" x="901.89" y="718.8" width="106.26" height="33.91"/><rect class="cls-13" x="901.89" y="718.8" width="106.26" height="33.91"/><rect class="cls-42" x="901.89" y="308.54" width="108.65" height="33.91"/><rect class="cls-13" x="901.89" y="308.54" width="108.65" height="33.91"/><rect class="cls-44" x="901.89" y="942.58" width="111.58" height="33.91"/><rect class="cls-13" x="901.89" y="942.58" width="111.58" height="33.91"/><rect class="cls-45" x="901.89" y="345.84" width="94.84" height="33.91"/><rect class="cls-13" x="901.89" y="345.84" width="94.84" height="33.91"/><rect class="cls-46" x="901.89" y="383.13" width="103.33" height="33.91"/><rect class="cls-13" x="901.89" y="383.13" width="103.33" height="33.91"/><rect class="cls-43" x="901.89" y="420.43" width="112.79" height="33.91"/><rect class="cls-13" x="901.89" y="420.43" width="112.79" height="33.91"/><rect class="cls-44" x="901.89" y="457.73" width="111.79" height="33.91"/><rect class="cls-13" x="901.89" y="457.73" width="111.79" height="33.91"/><rect class="cls-42" x="901.89" y="979.88" width="108.97" height="33.91"/><rect class="cls-13" x="901.89" y="979.88" width="108.97" height="33.91"/><rect class="cls-47" x="901.89" y="495.02" width="73.91" height="33.91"/><rect class="cls-13" x="901.89" y="495.02" width="73.91" height="33.91"/><rect class="cls-48" x="901.89" y="532.32" width="107.12" height="33.91"/><rect class="cls-13" x="901.89" y="532.32" width="107.12" height="33.91"/><rect class="cls-49" x="901.89" y="1017.17" width="59.5" height="33.91"/><rect class="cls-13" x="901.89" y="1017.17" width="59.5" height="33.91"/><rect class="cls-50" x="901.89" y="756.1" width="49.23" height="33.91"/><rect class="cls-13" x="901.89" y="756.1" width="49.23" height="33.91"/><rect class="cls-51" x="901.89" y="793.39" width="55.81" height="33.91"/><rect class="cls-13" x="901.89" y="793.39" width="55.81" height="33.91"/><rect class="cls-52" x="901.89" y="569.62" width="99.73" height="33.91"/><rect class="cls-13" x="901.89" y="569.62" width="99.73" height="33.91"/><rect class="cls-53" x="901.89" y="606.91" width="69.22" height="33.91"/><rect class="cls-13" x="901.89" y="606.91" width="69.22" height="33.91"/><rect class="cls-54" x="901.89" y="830.69" width="41.85" height="33.91"/><rect class="cls-13" x="901.89" y="830.69" width="41.85" height="33.91"/><rect class="cls-55" x="901.89" y="867.99" width="17.01" height="33.91"/><rect class="cls-13" x="901.89" y="867.99" width="17.01" height="33.91"/><rect class="cls-56" x="1054.47" y="159.36" width="121.52" height="33.91"/><rect class="cls-13" x="1054.47" y="159.36" width="121.52" height="33.91"/><rect class="cls-57" x="1054.47" y="196.65" width="119.08" height="33.91"/><rect class="cls-13" x="1054.47" y="196.65" width="119.08" height="33.91"/><rect class="cls-58" x="1054.47" y="233.95" width="105.71" height="33.91"/><rect class="cls-13" x="1054.47" y="233.95" width="105.71" height="33.91"/><rect class="cls-58" x="1054.47" y="681.5" width="104.97" height="33.91"/><rect class="cls-13" x="1054.47" y="681.5" width="104.97" height="33.91"/><rect class="cls-59" x="1054.47" y="271.25" width="100.77" height="33.91"/><rect class="cls-13" x="1054.47" y="271.25" width="100.77" height="33.91"/><rect class="cls-60" x="1054.47" y="718.8" width="103.48" height="33.91"/><rect class="cls-13" x="1054.47" y="718.8" width="103.48" height="33.91"/><rect class="cls-61" x="1054.47" y="308.54" width="112.16" height="33.91"/><rect class="cls-13" x="1054.47" y="308.54" width="112.16" height="33.91"/><rect class="cls-62" x="1054.47" y="942.58" width="95.73" height="33.91"/><rect class="cls-13" x="1054.47" y="942.58" width="95.73" height="33.91"/><rect class="cls-60" x="1054.47" y="345.84" width="104.02" height="33.91"/><rect class="cls-13" x="1054.47" y="345.84" width="104.02" height="33.91"/><rect class="cls-63" x="1054.47" y="383.13" width="98.46" height="33.91"/><rect class="cls-13" x="1054.47" y="383.13" width="98.46" height="33.91"/><rect class="cls-64" x="1054.47" y="420.43" width="111.62" height="33.91"/><rect class="cls-13" x="1054.47" y="420.43" width="111.62" height="33.91"/><rect class="cls-65" x="1054.47" y="457.73" width="86.97" height="33.91"/><rect class="cls-13" x="1054.47" y="457.73" width="86.97" height="33.91"/><rect class="cls-66" x="1054.47" y="979.88" width="90" height="33.91"/><rect class="cls-13" x="1054.47" y="979.88" width="90" height="33.91"/><rect class="cls-61" x="1054.47" y="495.02" width="111.73" height="33.91"/><rect class="cls-13" x="1054.47" y="495.02" width="111.73" height="33.91"/><rect class="cls-67" x="1054.47" y="532.32" width="94.12" height="33.91"/><rect class="cls-13" x="1054.47" y="532.32" width="94.12" height="33.91"/><rect class="cls-68" x="1054.47" y="1017.17" width="99.68" height="33.91"/><rect class="cls-13" x="1054.47" y="1017.17" width="99.68" height="33.91"/><rect class="cls-69" x="1054.47" y="756.1" width="120.84" height="33.91"/><rect class="cls-13" x="1054.47" y="756.1" width="120.84" height="33.91"/><rect class="cls-59" x="1054.47" y="793.39" width="101.04" height="33.91"/><rect class="cls-13" x="1054.47" y="793.39" width="101.04" height="33.91"/><rect class="cls-70" x="1054.47" y="569.62" width="102.13" height="33.91"/><rect class="cls-13" x="1054.47" y="569.62" width="102.13" height="33.91"/><rect class="cls-60" x="1054.47" y="606.91" width="104.02" height="33.91"/><rect class="cls-13" x="1054.47" y="606.91" width="104.02" height="33.91"/><rect class="cls-71" x="1054.47" y="830.69" width="87.48" height="33.91"/><rect class="cls-13" x="1054.47" y="830.69" width="87.48" height="33.91"/><rect class="cls-63" x="1054.47" y="867.99" width="99.14" height="33.91"/><rect class="cls-13" x="1054.47" y="867.99" width="99.14" height="33.91"/><text class="cls-72" transform="translate(20.34 180.38)">HGIMC</text><text class="cls-72" transform="translate(20.34 217.68)">BNNR</text><text class="cls-72" transform="translate(20.34 254.98)">OMC</text><text class="cls-72" transform="translate(20.34 702.53)">deepDR</text><text class="cls-72" transform="translate(20.34 292.27)">NMFDR</text><text class="cls-72" transform="translate(20.34 739.83)">DDA-SKF</text><text class="cls-72" transform="translate(20.34 329.57)">MSBMF</text><text class="cls-72" transform="translate(20.34 963.61)">iDrug</text><text class="cls-72" transform="translate(20.34 366.86)">MLMC</text><text class="cls-72" transform="translate(20.34 404.16)">DRPADC</text><text class="cls-72" transform="translate(20.34 441.46)">GROBMC</text><text class="cls-72" transform="translate(20.34 478.75)">SCPMF</text><text class="cls-72" transform="translate(20.34 1000.9)">MBiRW</text><text class="cls-72" transform="translate(20.34 516.05)">DRRS</text><text class="cls-72" transform="translate(20.34 553.35)">DDAPRED</text><text class="cls-72" transform="translate(20.34 1038.2)">HINGRL</text><text class="cls-72" transform="translate(20.34 777.13)">DRHGCN</text><text class="cls-72" transform="translate(20.34 814.42)">HNRD</text><text class="cls-72" transform="translate(20.34 590.64)">DRIMC</text><text class="cls-72" transform="translate(20.34 627.94)">SCMFDD</text><text class="cls-72" transform="translate(20.34 851.72)">ANMF</text><text class="cls-72" transform="translate(20.34 889.02)">LAGCN</text><text class="cls-72" transform="translate(125.45 180.38)">HGBI, bounded matrix completion, Gaussian radial basis, ADMM</text><text class="cls-72" transform="translate(125.45 217.68)">nuclear norm regularization, ADMM</text><text class="cls-72" transform="translate(125.45 254.98)">nuclear norm minimization, ADMM, KNN</text><text class="cls-72" transform="translate(125.45 702.53)">MDA, cVAE</text><text class="cls-72" transform="translate(125.45 292.27)">non-negative matrix factorization, Similarity Network Fusion</text><text class="cls-72" transform="translate(125.45 739.83)">similarity kernel fusion, Laplacian regularized least squares</text><text class="cls-72" transform="translate(125.45 329.57)">bilinear matrix factorization, ADMM</text><text class="cls-72" transform="translate(125.45 963.61)">cross-network embedding, multiplicative update minimization</text><text class="cls-72" transform="translate(125.45 366.86)">Laplacian graph regularization, ADMM</text><text class="cls-72" transform="translate(125.45 404.16)">WKNKN, CKA-MKL</text><text class="cls-72" transform="translate(125.45 441.46)">Laplacian graph regularization, nuclear norm minimization, PPXA</text><text class="cls-72" transform="translate(125.45 478.75)">similarity constrained probabilistic matrix factorization</text><text class="cls-72" transform="translate(125.45 1000.9)">bi-random walk</text><text class="cls-72" transform="translate(125.45 516.05)">SVT, nuclear norm minimization</text><text class="cls-72" transform="translate(125.45 553.35)">logistic matrix factorization, similar network fusion</text><text class="cls-72" transform="translate(125.45 1038.2)">Random walk, autoencoder</text><text class="cls-72" transform="translate(125.45 777.13)">graph convolutional network</text><text class="cls-72" transform="translate(125.45 814.42)">neighborhood information aggregation, Neural network</text><text class="cls-72" transform="translate(125.45 590.64)">logistic matrix factorization</text><text class="cls-72" transform="translate(125.45 627.94)">similarity constrained matrix factorization</text><text class="cls-72" transform="translate(125.45 851.72)">autoencoder</text><text class="cls-72" transform="translate(125.45 889.02)">graph convolutional network</text><text class="cls-72" transform="translate(467.9 180.38)">MATLAB</text><text class="cls-72" transform="translate(467.9 217.68)">MATLAB</text><text class="cls-72" transform="translate(467.9 254.98)">MATLAB</text><text class="cls-72" transform="translate(467.9 702.53)">Python</text><text class="cls-72" transform="translate(467.9 292.27)">MATLAB</text><text class="cls-72" transform="translate(467.9 739.83)">MATLAB</text><text class="cls-72" transform="translate(467.9 329.57)">MATLAB</text><text class="cls-72" transform="translate(467.9 963.61)">MATLAB</text><text class="cls-72" transform="translate(467.9 366.86)">MATLAB</text><text class="cls-72" transform="translate(467.9 404.16)">MATLAB</text><text class="cls-72" transform="translate(467.9 441.46)">MATLAB</text><text class="cls-72" transform="translate(467.9 478.75)">MATLAB</text><text class="cls-72" transform="translate(467.9 1000.9)">MATLAB</text><text class="cls-72" transform="translate(467.9 516.05)">MATLAB</text><text class="cls-72" transform="translate(467.9 553.35)">Python</text><text class="cls-72" transform="translate(467.9 1038.2)">Python</text><text class="cls-72" transform="translate(467.9 777.13)">Python</text><text class="cls-72" transform="translate(467.9 814.42)">Python</text><text class="cls-72" transform="translate(467.9 590.64)">R</text><text class="cls-72" transform="translate(467.9 627.94)">MATLAB</text><text class="cls-72" transform="translate(467.9 851.72)">Python</text><text class="cls-72" transform="translate(467.9 889.02)">Python</text><text class="cls-72" transform="translate(552.66 180.38)">0.849</text><text class="cls-72" transform="translate(552.66 217.68)">0.83</text><text class="cls-72" transform="translate(552.66 254.98)">0.822</text><text class="cls-72" transform="translate(552.66 702.53)">0.82</text><text class="cls-72" transform="translate(552.66 292.27)">0.819</text><text class="cls-72" transform="translate(552.66 739.83)">0.816</text><text class="cls-72" transform="translate(552.66 329.57)">0.812</text><text class="cls-72" transform="translate(552.66 963.61)">0.802</text><text class="cls-72" transform="translate(552.66 366.86)">0.799</text><text class="cls-72" transform="translate(552.66 404.16)">0.794</text><text class="cls-72" transform="translate(552.66 441.46)">0.788</text><text class="cls-72" transform="translate(552.66 478.75)">0.786</text><text class="cls-72" transform="translate(552.66 1000.9)">0.784</text><text class="cls-72" transform="translate(552.66 516.05)">0.745</text><text class="cls-72" transform="translate(552.66 553.35)">0.721</text><text class="cls-72" transform="translate(552.66 1038.2)">0.715</text><text class="cls-72" transform="translate(552.66 777.13)">0.592</text><text class="cls-72" transform="translate(552.66 814.42)">0.582</text><text class="cls-72" transform="translate(552.66 590.64)">0.579</text><text class="cls-72" transform="translate(552.66 627.94)">0.493</text><text class="cls-72" transform="translate(552.66 851.72)">0.419</text><text class="cls-72" transform="translate(552.66 889.02)">0.354</text><text class="cls-73" transform="translate(0 665.23)">Machine Learning</text><text class="cls-73" transform="translate(0 143.09)">Matrix Factorization / Matrix Completion</text><text class="cls-73" transform="translate(0 926.31)">Network Propagation</text><text class="cls-72" transform="translate(774.9 58.32)">Scores aggregation of all performance</text><text class="cls-74" transform="translate(815.09 21.02)">Evaluation Summary</text><text class="cls-74" transform="translate(215.1 21.02)">Method Characteristics</text><text class="cls-74" transform="translate(23.73 21.02)">a)</text><text class="cls-74" transform="translate(556.05 21.02)">b)</text><text class="cls-75" transform="matrix(0.87, -0.5, 0.5, 0.87, 294.98, 139.01)">Algorithms</text><text class="cls-75" transform="matrix(0.87, -0.5, 0.5, 0.87, 501.8, 139.01)">Language</text><text class="cls-75" transform="matrix(0.87, -0.5, 0.5, 0.87, 573.01, 139.01)">Overall</text><text class="cls-75" transform="matrix(0.87, -0.5, 0.5, 0.87, 817.13, 139.01)">Accuracy</text><text class="cls-75" transform="matrix(0.87, -0.5, 0.5, 0.87, 969.71, 139.01)">Scalability</text><text class="cls-75" transform="matrix(0.87, -0.5, 0.5, 0.87, 1122.28, 139.01)">Usability</text></g></svg>